<svg aria-hidden="true" style="position: absolute; width: 0; height: 0; overflow: hidden;" version="1.1" xmlns="http://www.w3.org/2000/svg" xmlns:xlink="http://www.w3.org/1999/xlink">
<defs>

<symbol id="icon-meltem-logo" viewBox="0 0 151 32">
<path fill="#859ba6" style="fill: var(--color1, #859ba6)" d="M73.448 1.754h-9.13v29.379h9.13v-29.379z"></path>
<path fill="#859ba6" style="fill: var(--color1, #859ba6)" d="M5.917 12.717l-5.917 18.413h12.565l-6.649-18.413z"></path>
<path fill="#859ba6" style="fill: var(--color1, #859ba6)" d="M7.78 7.253l1.899-5.512h6.904l10.078 29.389h-10.735l-8.146-23.877z"></path>
<path fill="#859ba6" style="fill: var(--color1, #859ba6)" d="M21.803 7.179l1.899-5.438h6.868l10.081 29.389h-10.774l-8.073-23.951z"></path>
<path fill="#859ba6" style="fill: var(--color1, #859ba6)" d="M142.587 4.693c0-5.569 8.123-5.569 8.123 0s-8.123 5.569-8.123 0zM150.25 4.693c0-4.99-7.202-4.99-7.202 0s7.202 5 7.202 0zM148.576 7.019v0.058h-0.526l-1.335-1.72h-1.235v1.72h-0.482v-4.744h1.832c0.91 0 1.591 0.577 1.591 1.518 0 0.766-0.482 1.329-1.209 1.445l1.364 1.72v0.003zM145.478 4.924h1.321c0.64 0 1.137-0.391 1.137-1.070 0-0.637-0.497-1.070-1.137-1.070h-1.321v2.14z"></path>
<path fill="#859ba6" style="fill: var(--color1, #859ba6)" d="M117.351 17.77l-4.347 13.36h9.165l-4.819-13.36z"></path>
<path fill="#859ba6" style="fill: var(--color1, #859ba6)" d="M118.92 14.018l1.314-3.815h7.378l7.16 20.927h-9.934l-5.917-17.112z"></path>
<path fill="#859ba6" style="fill: var(--color1, #859ba6)" d="M131.522 13.942l1.386-3.739h7.378l7.087 20.928h-10.007l-5.845-17.188z"></path>
<path fill="#859ba6" style="fill: var(--color1, #859ba6)" d="M61.761 22.417c0 0 0.974-12.933-10.591-12.933 0 0-10.689-0.645-10.689 11.273 0 0-0.32 10.727 10.65 10.727 0 0 6.612-0.024 9.218-4.93l-0.935-0.598c0 0-2.456 3.708-7.916 3.708 0 0-1.585-0.052-2.023-0.147l0.015-7.101h12.271zM49.356 20.67v-7.261c0-0.632 0.376-1.773 1.703-1.773 1.193 0 1.582 1.177 1.582 1.809v7.221l-3.286 0.003z"></path>
<path fill="#859ba6" style="fill: var(--color1, #859ba6)" d="M113.54 22.417c0 0 0.974-12.933-10.591-12.933 0 0-10.689-0.645-10.689 11.273 0 0-0.319 10.727 10.651 10.727 0 0 6.612-0.024 9.217-4.93l-0.935-0.598c0 0-2.456 3.708-7.916 3.708 0 0-1.585-0.052-2.023-0.147l0.015-7.101h12.271zM101.135 20.67v-7.261c0-0.632 0.376-1.773 1.703-1.773 1.194 0 1.582 1.177 1.582 1.809v7.221l-3.285 0.003z"></path>
<path fill="#859ba6" style="fill: var(--color1, #859ba6)" d="M74.739 8.071l12.405-5.451v3.556h49.91v1.896h-49.91v19.102c0 0 0.054 1.413 1.242 1.413s2.247-1.618 2.247-1.618l0.74 0.753c0 0-1.451 3.763-6.821 3.763s-6.847-3.792-6.847-6.375v-17.039h-2.966z"></path>
</symbol>

<symbol id="icon-quality" viewBox="0 0 33 32">
<path fill="#859ba6" style="fill: var(--color1, #859ba6)" d="M21.637 9.572c-0.262-0.261-0.686-0.261-0.948 0l-6.65 6.657-1.903-2.017c-0.127-0.137-0.304-0.215-0.491-0.215s-0.364 0.078-0.491 0.215l-2.387 2.562c-0.252 0.26-0.252 0.674 0 0.934l4.754 4.761c0.127 0.126 0.299 0.196 0.477 0.195 0.179 0.001 0.35-0.069 0.477-0.195l9.548-9.568c0.127-0.126 0.199-0.298 0.199-0.477s-0.072-0.351-0.199-0.477l-2.387-2.373zM14.012 21.002l-3.819-3.826 1.453-1.56 1.889 2.017c0.127 0.131 0.302 0.205 0.484 0.205s0.357-0.074 0.484-0.205l6.663-6.67 1.432 1.432-8.586 8.606z"></path>
<path fill="#859ba6" style="fill: var(--color1, #859ba6)" d="M16.4 2.667c-3.536 0-6.928 1.405-9.428 3.905s-3.905 5.892-3.905 9.428 1.405 6.927 3.905 9.428c2.501 2.5 5.892 3.905 9.428 3.905s6.927-1.405 9.428-3.905c2.5-2.501 3.905-5.892 3.905-9.428-0.003-3.535-1.409-6.925-3.909-9.424s-5.889-3.906-9.424-3.909l0 0zM16.4 27.982c-3.18 0-6.23-1.264-8.478-3.512s-3.511-5.299-3.511-8.479c0-3.18 1.264-6.23 3.514-8.477s5.3-3.51 8.48-3.509c3.18 0.001 6.229 1.265 8.477 3.515s3.509 5.3 3.507 8.48c-0.004 3.179-1.268 6.226-3.515 8.473s-5.295 3.512-8.473 3.515l-0-0.006z"></path>
</symbol>

<symbol id="icon-close-burger" viewBox="0 0 37 32">
<path fill="#859ba6" style="fill: var(--color1, #859ba6)" d="M7.459 3.152l23.498 23.498c0.721 0.721 0.721 1.89 0 2.611s-1.89 0.721-2.611 0l-23.498-23.498c-0.721-0.721-0.721-1.89 0-2.611s1.89-0.721 2.611 0z"></path>
<path fill="#859ba6" style="fill: var(--color1, #859ba6)" d="M4.998 26.387l23.498-23.498c0.721-0.721 1.89-0.721 2.611 0s0.721 1.89 0 2.611l-23.498 23.498c-0.721 0.721-1.89 0.721-2.611 0s-0.721-1.89 0-2.611z"></path>
</symbol>

<symbol id="icon-burger" viewBox="0 0 37 32">
<path fill="#859ba6" style="fill: var(--color1, #859ba6)" d="M1.846 6.769h33.231c1.020 0 1.846 0.827 1.846 1.846s-0.827 1.846-1.846 1.846h-33.231c-1.020 0-1.846-0.827-1.846-1.846s0.827-1.846 1.846-1.846z"></path>
<path fill="#859ba6" style="fill: var(--color1, #859ba6)" d="M1.846 21.538h33.231c1.020 0 1.846 0.827 1.846 1.846s-0.827 1.846-1.846 1.846h-33.231c-1.020 0-1.846-0.827-1.846-1.846s0.827-1.846 1.846-1.846z"></path>
</symbol>

</defs>
</svg>
